# xmcd
#
# Track frame offsets:
#	150
#	17181
#	31969
#	51707
#	69701
#	86814
#	99284
#	116770
#	134375
#	147304
#	161308
#	174030
#	192664
#
# Disc length: 2809 seconds
#
# Revision: 0
# Processed by: cddbd v1.4PL0 Copyright (c) Steve Scherf et al.
# Submitted via: dBpowerAMP V4.0
#
DISCID=b80af70d
DTITLE=2Boss Vega - What Planet Are You On?
DYEAR=2001
DGENRE=R&B
TTITLE0=Love Pays Retail
TTITLE1=What I Really Need
TTITLE2=End Of The Line
TTITLE3=Don't Look Back
TTITLE4=Livin' Well
TTITLE5=Generation Next
TTITLE6=Take It Out
TTITLE7=Minnesota Blues
TTITLE8=Status Quo
TTITLE9=Overland
TTITLE10=Must Be Love
TTITLE11=Blind Lover
TTITLE12=Where The Flesh Meets The Steel
EXTD=
EXTT0=
EXTT1=
EXTT2=
EXTT3=
EXTT4=
EXTT5=
EXTT6=
EXTT7=
EXTT8=
EXTT9=
EXTT10=
EXTT11=
EXTT12=
PLAYORDER=
